<svg width="32" height="24" viewBox="0 0 32 24" fill="none" xmlns="http://www.w3.org/2000/svg">
<path d="M31.71 9.97999L22 0.319985C21.9066 0.227303 21.7957 0.153975 21.6739 0.10421C21.5521 0.0544457 21.4216 0.029223 21.29 0.0299839H18.07C18.0194 0.0252301 17.9686 0.0366491 17.925 0.0625996C17.8813 0.0885501 17.847 0.127696 17.827 0.174393C17.8069 0.22109 17.8023 0.272931 17.8136 0.322457C17.8249 0.371982 17.8517 0.416632 17.89 0.449982L27.89 10.45H0.25C0.183696 10.45 0.120111 10.4763 0.0732269 10.5232C0.0263428 10.5701 0 10.6337 0 10.7V13.2C0 13.2663 0.0263428 13.3299 0.0732269 13.3768C0.120111 13.4236 0.183696 13.45 0.25 13.45H27.94L17.83 23.57C17.7943 23.6044 17.7697 23.6486 17.7592 23.697C17.7486 23.7454 17.7528 23.7959 17.771 23.8419C17.7892 23.888 17.8207 23.9276 17.8615 23.9558C17.9022 23.9839 17.9505 23.9993 18 24H21.23C21.3623 23.9994 21.4932 23.9726 21.6151 23.9211C21.7369 23.8696 21.8474 23.7945 21.94 23.7L31.71 13.93C31.8027 13.8365 31.876 13.7257 31.9258 13.6039C31.9755 13.4821 32.0008 13.3516 32 13.22V10.69C32.0008 10.5584 31.9755 10.4279 31.9258 10.3061C31.876 10.1842 31.8027 10.0734 31.71 9.97999Z" fill="#1E1D1D"/>
</svg>
