<svg width="33" height="25" viewBox="0 0 33 25" fill="none" xmlns="http://www.w3.org/2000/svg">
<path d="M32.21 10.2897L22.5 0.629738C22.4066 0.537057 22.2957 0.463728 22.1739 0.413964C22.0521 0.364199 21.9216 0.338976 21.79 0.339737H18.57C18.5194 0.334984 18.4686 0.346403 18.425 0.372353C18.3813 0.398303 18.347 0.437449 18.327 0.484147C18.3069 0.530844 18.3023 0.582685 18.3136 0.63221C18.3249 0.681736 18.3517 0.726386 18.39 0.759736L28.39 10.7597H0.75C0.683696 10.7597 0.620111 10.7861 0.573227 10.833C0.526343 10.8798 0.5 10.9434 0.5 11.0097V13.5097C0.5 13.576 0.526343 13.6396 0.573227 13.6865C0.620111 13.7334 0.683696 13.7597 0.75 13.7597H28.44L18.33 23.8797C18.2943 23.9141 18.2697 23.9583 18.2592 24.0067C18.2486 24.0552 18.2528 24.1056 18.271 24.1517C18.2892 24.1978 18.3207 24.2374 18.3615 24.2655C18.4022 24.2937 18.4505 24.3091 18.5 24.3097H21.73C21.8623 24.3092 21.9932 24.2824 22.1151 24.2309C22.2369 24.1794 22.3474 24.1042 22.44 24.0097L32.21 14.2397C32.3027 14.1463 32.376 14.0355 32.4258 13.9136C32.4755 13.7918 32.5008 13.6613 32.5 13.5297V10.9997C32.5008 10.8681 32.4755 10.7377 32.4258 10.6158C32.376 10.494 32.3027 10.3832 32.21 10.2897Z" fill="#E1DFDC"/>
</svg>
