<svg width="557" height="383" viewBox="0 0 557 383" fill="none" xmlns="http://www.w3.org/2000/svg">
<path d="M3.04 26.2852H1.44V15.0852H6.16C8.24 15.0852 9.76 16.3172 9.76 18.4772C9.76 20.6372 8.24 21.8692 6.16 21.8692H3.04V26.2852ZM3.04 16.5252V20.4292H5.92C7.36 20.4292 8.16 19.7572 8.16 18.4772C8.16 17.1972 7.36 16.5252 5.92 16.5252H3.04ZM13.0169 26.2852H11.4969V18.2852H12.9369V20.0452C13.2569 18.8452 14.2169 18.2052 15.2569 18.2052H15.9769V19.6772H15.3369C13.8969 19.6772 13.0169 20.6372 13.0169 22.2372V26.2852ZM19.1125 16.8452H17.4325V15.0852H19.1125V16.8452ZM19.0325 26.2852H17.5125V18.2852H19.0325V26.2852ZM22.9544 26.2852H21.4344V18.2852H22.9544V19.4052C23.4344 18.6852 24.2344 18.1252 25.3544 18.1252C26.5064 18.1252 27.4664 18.5732 27.9944 19.6132C28.6184 18.5092 29.6584 18.1252 30.6344 18.1252C32.4744 18.1252 33.5144 19.2452 33.5144 20.9252V26.2852H31.9944V21.2452C31.9944 20.1252 31.5144 19.4052 30.3784 19.4052H30.2504C29.2744 19.4052 28.2344 20.2852 28.2344 21.8052V26.2852H26.7144V21.2452C26.7144 20.1252 26.2344 19.4052 25.0984 19.4052H24.9704C23.9944 19.4052 22.9544 20.2852 22.9544 21.8052V26.2852ZM38.0006 26.4452C36.4806 26.4452 35.3606 25.4372 35.3606 24.0772C35.3606 22.2532 36.9766 21.7092 38.2726 21.5972L40.4806 21.4212V21.1652C40.4806 20.0452 39.8406 19.4052 38.8166 19.4052H38.6886C37.8566 19.4052 37.1366 19.8052 37.0406 20.6052H35.5206C35.6166 19.1332 36.9446 18.1252 38.7526 18.1252C40.8806 18.1252 42.0006 19.5332 42.0006 21.1652V24.5252C42.0006 25.0052 42.0006 25.7252 42.0806 26.2852H40.6406C40.5606 25.8852 40.5606 25.0852 40.5606 25.0052C40.2406 25.7252 39.2806 26.4452 38.0006 26.4452ZM38.1766 25.1652H38.3046C39.2806 25.1652 40.4806 24.3652 40.4806 23.4052V22.5892L38.4806 22.7492C37.5526 22.8292 36.8806 23.2772 36.8806 24.0132C36.8806 24.6692 37.4246 25.1652 38.1766 25.1652ZM45.845 26.2852H44.325V18.2852H45.765V20.0452C46.085 18.8452 47.045 18.2052 48.085 18.2052H48.805V19.6772H48.165C46.725 19.6772 45.845 20.6372 45.845 22.2372V26.2852ZM55.9726 18.2852H57.5406L54.2606 26.1092V27.5652C54.2606 28.6852 53.7006 29.2452 52.5806 29.2452H49.9406V27.8852H52.1806C52.6606 27.8852 52.8206 27.7252 52.8206 27.2452V26.1252L49.4606 18.2852H51.0766L53.5726 24.1892L55.9726 18.2852ZM70.9594 26.2852H62.7994V15.0852H64.3994V24.8452H70.9594V26.2852ZM75.6846 26.4452C73.5246 26.4452 71.8446 24.7652 71.8446 22.2852C71.8446 19.8052 73.5246 18.1252 75.6846 18.1252C77.8446 18.1252 79.5246 19.8052 79.5246 22.2852C79.5246 24.7652 77.8446 26.4452 75.6846 26.4452ZM75.6206 25.1652H75.7486C77.0446 25.1652 78.0046 24.1252 78.0046 22.2852C78.0046 20.4452 77.0446 19.4052 75.7486 19.4052H75.6206C74.3246 19.4052 73.3646 20.4452 73.3646 22.2852C73.3646 24.1252 74.3246 25.1652 75.6206 25.1652ZM84.5224 29.8052C82.2824 29.8052 80.9704 28.7652 80.8104 27.3252H82.3304C82.4904 28.1252 83.3544 28.5252 84.4424 28.5252H84.6024C85.9624 28.5252 86.9224 27.8052 86.9224 26.1252V25.0052C86.5224 25.6452 85.7224 26.2852 84.5224 26.2852C82.6824 26.2852 80.9704 25.0052 80.9704 22.2052C80.9704 19.4052 82.6344 18.1252 84.5224 18.1252C85.7224 18.1252 86.6024 18.7652 86.9224 19.4052V18.2852H88.4424V26.2852C88.4424 28.2852 87.0024 29.8052 84.5224 29.8052ZM84.5864 25.0052H84.7144C85.8184 25.0052 86.9224 23.9652 86.9224 22.2052C86.9224 20.4452 85.8984 19.4052 84.7944 19.4052H84.6664C83.5304 19.4052 82.4904 20.2052 82.4904 22.2052C82.4904 24.2052 83.4504 25.0052 84.5864 25.0052ZM94.1846 26.4452C92.0246 26.4452 90.3446 24.7652 90.3446 22.2852C90.3446 19.8052 92.0246 18.1252 94.1846 18.1252C96.3446 18.1252 98.0246 19.8052 98.0246 22.2852C98.0246 24.7652 96.3446 26.4452 94.1846 26.4452ZM94.1206 25.1652H94.2486C95.5446 25.1652 96.5046 24.1252 96.5046 22.2852C96.5046 20.4452 95.5446 19.4052 94.2486 19.4052H94.1206C92.8246 19.4052 91.8646 20.4452 91.8646 22.2852C91.8646 24.1252 92.8246 25.1652 94.1206 25.1652Z" fill="white"/>
<line y1="45.0352" x2="557" y2="45.0352" stroke="#EAEAEA" stroke-width="0.5"/>
<circle cx="150.785" cy="225.134" r="113.848" fill="white"/>
<path d="M68.0995 257.189C68.9063 253.046 72.7967 250.222 77.0074 250.741C78.7378 250.953 80.4806 251.079 82.0149 251.079C85.8383 251.079 90.9203 249.958 93.4577 248.211C94.0709 247.788 93.9194 246.847 93.2094 246.624L81.7071 243.012C78.6434 242.051 77.2382 238.533 78.7999 235.741C82.3824 229.344 90.7962 223.861 90.687 220.682C90.5479 216.61 86.5905 215.681 83.1644 214.779C70.8403 211.535 76.5307 198.047 85.2697 200.246C89.9298 201.419 91.4566 206.549 93.3137 218.772C94.3067 225.304 94.4433 234.476 95.0714 242.491C95.1062 242.933 95.4637 243.284 95.9106 243.314C96.3028 243.341 96.6703 243.111 96.8118 242.745C100.707 232.558 101.34 219.308 100.764 208.8C100.516 204.281 104.238 200.54 108.783 200.73C108.845 200.733 108.907 200.735 108.97 200.738C113.684 200.943 116.691 205.83 114.729 210.102C110.233 219.893 105.526 230.335 102.51 237.068C93.6041 256.794 85.8482 266.324 76.4636 266.324C76.1483 266.324 75.8306 266.321 75.5128 266.314C70.7336 266.208 67.1908 261.859 68.1019 257.189H68.0995Z" fill="#EAA800"/>
<path d="M227.578 229.825C229.209 225.753 233.611 216.579 233.611 210.099C233.611 204.952 230.165 199.998 225.185 199.998C218.896 199.998 212.409 206.958 206.254 227.409C207.267 222.759 208.235 217.956 208.235 215.529C208.235 207.714 206.321 199.996 200.959 199.996C195.596 199.996 188.652 207.497 182.197 229.798C183.096 224.733 183.721 220.582 183.721 217.911C183.721 205.046 180.849 200.06 177.212 199.996C170.628 199.877 166.499 210.43 164.399 220.96C162.452 230.715 158.505 233.062 157.164 233.062C155.056 233.062 153.43 232.108 153.43 228.869C153.43 223.391 155.384 215.364 157.924 207.354C158.894 204.295 156.722 201.142 153.505 200.957C149.13 200.705 145.513 204.32 145.801 208.673C146.796 223.789 145.108 232.301 134.373 232.301C131.406 232.301 129.107 231.824 129.107 229.156C129.107 225.63 134.087 215.146 134.087 209.142C134.087 203.902 130.597 200.529 127.29 199.993C117.707 198.447 114.524 212.545 123.365 214.677C128.32 215.873 128.993 218.101 128.993 219.626C128.802 224.105 114.268 232.491 114.268 241.638C114.268 245.927 118.002 250.5 125.949 250.5C132.26 250.5 140.547 239.041 151.34 220.286C148.271 226.981 143.951 236.679 143.951 241.828C143.951 246.977 147.206 250.5 150.272 250.5C161.831 250.5 163.093 233.284 164.269 228.679C165.446 224.073 166.325 215.297 175.735 215.445C180.059 215.515 182.095 216.671 181.206 219.863C179.975 224.286 172.773 230.347 167.147 238.562C163.979 243.187 167.296 249.453 172.919 249.453C176.45 249.453 179.533 247.074 180.407 243.669C185.824 222.529 191.981 217.434 198.95 217.434C202.399 217.434 204.025 218.672 204.025 220.103C204.025 223.48 196.309 229.052 190.591 237.863C187.346 242.861 190.953 249.453 196.932 249.453C200.152 249.453 202.95 247.264 203.722 244.153C209.07 222.606 215.088 217.434 221.932 217.434C225.475 217.434 227.104 218.672 227.104 220.103C227.104 225.249 213.151 232.59 212.93 241.257C212.791 246.747 217.049 250.5 222.315 250.5C228.032 250.5 230.701 243.432 227.633 239.681C226.391 238.164 224.822 236.704 227.581 229.823L227.578 229.825Z" fill="#EAA800"/>
<circle cx="407.348" cy="224" r="112.715" fill="#EAA800"/>
<path d="M325.487 255.736C326.286 251.634 330.137 248.838 334.306 249.352C336.019 249.562 337.745 249.687 339.264 249.687C343.049 249.687 348.08 248.576 350.592 246.847C351.2 246.429 351.05 245.497 350.347 245.276L338.959 241.7C335.926 240.749 334.535 237.265 336.081 234.501C339.627 228.168 347.957 222.74 347.849 219.592C347.712 215.561 343.794 214.641 340.402 213.748C328.2 210.536 333.834 197.183 342.486 199.36C347.1 200.522 348.611 205.6 350.45 217.701C351.433 224.169 351.568 233.249 352.19 241.184C352.225 241.622 352.578 241.969 353.021 241.999C353.409 242.026 353.773 241.798 353.913 241.436C357.77 231.35 358.396 218.232 357.826 207.828C357.58 203.354 361.265 199.651 365.765 199.839C365.827 199.842 365.888 199.844 365.95 199.846C370.617 200.05 373.594 204.888 371.652 209.117C367.201 218.812 362.541 229.149 359.554 235.815C350.737 255.345 343.059 264.78 333.768 264.78C333.455 264.78 333.141 264.777 332.826 264.77C328.095 264.665 324.587 260.359 325.489 255.736H325.487Z" fill="white"/>
<path d="M483.377 228.645C484.992 224.614 489.35 215.531 489.35 209.115C489.35 204.02 485.938 199.115 481.008 199.115C474.782 199.115 468.359 206.006 462.266 226.253C463.268 221.649 464.227 216.894 464.227 214.492C464.227 206.754 462.332 199.113 457.023 199.113C451.713 199.113 444.839 206.539 438.448 228.618C439.338 223.604 439.957 219.494 439.957 216.85C439.957 204.113 437.113 199.176 433.512 199.113C426.994 198.995 422.906 209.443 420.827 219.868C418.9 229.526 414.991 231.85 413.664 231.85C411.577 231.85 409.967 230.905 409.967 227.698C409.967 222.275 411.902 214.328 414.416 206.397C415.377 203.369 413.227 200.248 410.041 200.064C405.71 199.815 402.129 203.393 402.414 207.704C403.4 222.669 401.728 231.096 391.1 231.096C388.163 231.096 385.887 230.624 385.887 227.982C385.887 224.492 390.817 214.113 390.817 208.168C390.817 202.98 387.361 199.641 384.087 199.11C374.6 197.579 371.448 211.537 380.201 213.648C385.107 214.832 385.774 217.038 385.774 218.547C385.584 222.982 371.195 231.285 371.195 240.34C371.195 244.587 374.892 249.115 382.76 249.115C389.008 249.115 397.213 237.769 407.898 219.201C404.86 225.83 400.583 235.431 400.583 240.529C400.583 245.626 403.805 249.115 406.841 249.115C418.285 249.115 419.534 232.07 420.699 227.51C421.864 222.95 422.734 214.262 432.05 214.408C436.331 214.477 438.347 215.622 437.467 218.782C436.248 223.161 429.117 229.161 423.548 237.295C420.411 241.874 423.695 248.077 429.262 248.077C432.758 248.077 435.81 245.722 436.676 242.351C442.039 221.422 448.135 216.378 455.034 216.378C458.448 216.378 460.058 217.603 460.058 219.019C460.058 222.363 452.419 227.879 446.758 236.602C443.546 241.551 447.117 248.077 453.036 248.077C456.224 248.077 458.994 245.91 459.758 242.83C465.053 221.497 471.011 216.378 477.788 216.378C481.295 216.378 482.908 217.603 482.908 219.019C482.908 224.115 469.094 231.382 468.875 239.963C468.737 245.399 472.953 249.115 478.166 249.115C483.827 249.115 486.469 242.116 483.431 238.403C482.202 236.901 480.649 235.455 483.379 228.643L483.377 228.645Z" fill="white"/>
</svg>
