<svg width="557" height="383" viewBox="0 0 557 383" fill="none" xmlns="http://www.w3.org/2000/svg">
<path d="M4.976 26.4452C2.336 26.4452 0.656 25.1652 0.576 22.6852H2.176C2.176 24.2052 3.36 25.0052 5.04 25.0052H5.2C6.704 25.0052 7.52 24.2532 7.52 23.3252C7.52 22.4132 6.944 21.8852 5.76 21.6452L3.968 21.2772C2.176 20.9092 1.136 19.9012 1.136 18.1252C1.136 16.3652 2.72 14.9252 5.136 14.9252C7.616 14.9252 9.2 16.2852 9.28 18.4452H7.68C7.6 17.1652 6.576 16.3652 5.216 16.3652H5.056C3.664 16.3652 2.736 17.1172 2.736 18.1092C2.736 18.9732 3.328 19.4852 4.272 19.6772L6.064 20.0292C8 20.4132 9.12 21.4372 9.12 23.2612C9.12 25.2292 7.456 26.4452 4.976 26.4452ZM14.5116 26.4452C12.5276 26.4452 10.7356 25.0692 10.7356 22.2692C10.7356 19.5012 12.5756 18.1252 14.4636 18.1252C16.5436 18.1252 17.8556 19.5652 17.8556 21.6452V22.5252H12.2556C12.3516 24.3492 13.5196 25.1652 14.4956 25.1652H14.6236C15.4076 25.1652 16.1596 24.7652 16.3196 23.9172H17.8396C17.5516 25.5332 16.1596 26.4452 14.5116 26.4452ZM12.3516 21.3252H16.3356C16.2716 19.9332 15.4396 19.4052 14.5276 19.4052H14.3996C13.5676 19.4052 12.6396 19.9012 12.3516 21.3252ZM23.185 26.4452C20.721 26.4452 19.345 24.6372 19.345 22.2852C19.345 19.9332 20.721 18.1252 23.185 18.1252C25.009 18.1252 26.305 19.1972 26.465 20.9252H24.945C24.801 20.0452 24.161 19.4052 23.249 19.4052H23.121C21.585 19.4052 20.865 20.7652 20.865 22.2852C20.865 23.8052 21.585 25.1652 23.121 25.1652H23.249C24.161 25.1652 24.801 24.5252 24.945 23.6452H26.465C26.305 25.3732 25.009 26.4452 23.185 26.4452ZM31.6846 26.4452C29.5246 26.4452 27.8446 24.7652 27.8446 22.2852C27.8446 19.8052 29.5246 18.1252 31.6846 18.1252C33.8446 18.1252 35.5246 19.8052 35.5246 22.2852C35.5246 24.7652 33.8446 26.4452 31.6846 26.4452ZM31.6206 25.1652H31.7486C33.0446 25.1652 34.0046 24.1252 34.0046 22.2852C34.0046 20.4452 33.0446 19.4052 31.7486 19.4052H31.6206C30.3246 19.4052 29.3646 20.4452 29.3646 22.2852C29.3646 24.1252 30.3246 25.1652 31.6206 25.1652ZM38.9544 26.2852H37.4344V18.2852H38.9544V19.4052C39.4344 18.6852 40.2344 18.1252 41.5144 18.1252C43.3544 18.1252 44.3944 19.2452 44.3944 20.9252V26.2852H42.8744V21.2452C42.8744 20.1252 42.3944 19.4052 41.2584 19.4052H41.1304C39.9944 19.4052 38.9544 20.2852 38.9544 21.8052V26.2852ZM49.6916 26.4452C47.6916 26.4452 46.2516 24.9252 46.2516 22.2852C46.2516 19.6452 47.8516 18.1252 49.8516 18.1252C50.9716 18.1252 51.9316 18.6852 52.3316 19.4052V15.0852H53.8516V26.2852H52.3316V25.1652C51.9316 25.8852 50.8116 26.4452 49.6916 26.4452ZM49.9476 25.1652H50.0756C51.2116 25.1652 52.3316 24.2052 52.3316 22.2852C52.3316 20.3652 51.2116 19.4052 50.0756 19.4052H49.9476C48.7316 19.4052 47.7716 20.3652 47.7716 22.2852C47.7716 24.2052 48.7316 25.1652 49.9476 25.1652ZM58.4069 26.4452C56.8869 26.4452 55.7669 25.4372 55.7669 24.0772C55.7669 22.2532 57.3829 21.7092 58.6789 21.5972L60.8869 21.4212V21.1652C60.8869 20.0452 60.2469 19.4052 59.2229 19.4052H59.0949C58.2629 19.4052 57.5429 19.8052 57.4469 20.6052H55.9269C56.0229 19.1332 57.3509 18.1252 59.1589 18.1252C61.2869 18.1252 62.4069 19.5332 62.4069 21.1652V24.5252C62.4069 25.0052 62.4069 25.7252 62.4869 26.2852H61.0469C60.9669 25.8852 60.9669 25.0852 60.9669 25.0052C60.6469 25.7252 59.6869 26.4452 58.4069 26.4452ZM58.5829 25.1652H58.7109C59.6869 25.1652 60.8869 24.3652 60.8869 23.4052V22.5892L58.8869 22.7492C57.9589 22.8292 57.2869 23.2772 57.2869 24.0132C57.2869 24.6692 57.8309 25.1652 58.5829 25.1652ZM66.2513 26.2852H64.7313V18.2852H66.1713V20.0452C66.4913 18.8452 67.4513 18.2052 68.4913 18.2052H69.2113V19.6772H68.5713C67.1313 19.6772 66.2513 20.6372 66.2513 22.2372V26.2852ZM76.3789 18.2852H77.9469L74.6669 26.1092V27.5652C74.6669 28.6852 74.1069 29.2452 72.9869 29.2452H70.3469V27.8852H72.5869C73.0669 27.8852 73.2269 27.7252 73.2269 27.2452V26.1252L69.8669 18.2852H71.4829L73.9789 24.1892L76.3789 18.2852ZM91.3656 26.2852H83.2056V15.0852H84.8056V24.8452H91.3656V26.2852ZM96.0909 26.4452C93.9309 26.4452 92.2509 24.7652 92.2509 22.2852C92.2509 19.8052 93.9309 18.1252 96.0909 18.1252C98.2509 18.1252 99.9309 19.8052 99.9309 22.2852C99.9309 24.7652 98.2509 26.4452 96.0909 26.4452ZM96.0269 25.1652H96.1549C97.4509 25.1652 98.4109 24.1252 98.4109 22.2852C98.4109 20.4452 97.4509 19.4052 96.1549 19.4052H96.0269C94.7309 19.4052 93.7709 20.4452 93.7709 22.2852C93.7709 24.1252 94.7309 25.1652 96.0269 25.1652ZM104.929 29.8052C102.689 29.8052 101.377 28.7652 101.217 27.3252H102.737C102.897 28.1252 103.761 28.5252 104.849 28.5252H105.009C106.369 28.5252 107.329 27.8052 107.329 26.1252V25.0052C106.929 25.6452 106.129 26.2852 104.929 26.2852C103.089 26.2852 101.377 25.0052 101.377 22.2052C101.377 19.4052 103.041 18.1252 104.929 18.1252C106.129 18.1252 107.009 18.7652 107.329 19.4052V18.2852H108.849V26.2852C108.849 28.2852 107.409 29.8052 104.929 29.8052ZM104.993 25.0052H105.121C106.225 25.0052 107.329 23.9652 107.329 22.2052C107.329 20.4452 106.305 19.4052 105.201 19.4052H105.073C103.937 19.4052 102.897 20.2052 102.897 22.2052C102.897 24.2052 103.857 25.0052 104.993 25.0052ZM114.591 26.4452C112.431 26.4452 110.751 24.7652 110.751 22.2852C110.751 19.8052 112.431 18.1252 114.591 18.1252C116.751 18.1252 118.431 19.8052 118.431 22.2852C118.431 24.7652 116.751 26.4452 114.591 26.4452ZM114.527 25.1652H114.655C115.951 25.1652 116.911 24.1252 116.911 22.2852C116.911 20.4452 115.951 19.4052 114.655 19.4052H114.527C113.231 19.4052 112.271 20.4452 112.271 22.2852C112.271 24.1252 113.231 25.1652 114.527 25.1652Z" fill="white"/>
<line y1="45.0352" x2="557" y2="45.0352" stroke="#EAEAEA" stroke-width="0.5"/>
<path d="M68.0995 257.189C68.9063 253.046 72.7967 250.222 77.0074 250.741C78.7378 250.953 80.4806 251.079 82.0149 251.079C85.8383 251.079 90.9203 249.958 93.4577 248.211C94.0709 247.788 93.9194 246.847 93.2094 246.624L81.7071 243.012C78.6434 242.051 77.2382 238.533 78.7999 235.741C82.3824 229.344 90.7962 223.861 90.687 220.682C90.5479 216.61 86.5905 215.681 83.1644 214.779C70.8403 211.535 76.5307 198.047 85.2697 200.246C89.9298 201.419 91.4566 206.549 93.3137 218.772C94.3067 225.304 94.4433 234.476 95.0714 242.491C95.1062 242.933 95.4637 243.284 95.9106 243.314C96.3028 243.341 96.6703 243.111 96.8118 242.745C100.707 232.558 101.34 219.308 100.764 208.8C100.516 204.281 104.238 200.54 108.783 200.73C108.845 200.733 108.907 200.735 108.97 200.738C113.684 200.943 116.691 205.83 114.729 210.102C110.233 219.893 105.526 230.335 102.51 237.068C93.6041 256.794 85.8482 266.324 76.4636 266.324C76.1483 266.324 75.8306 266.321 75.5128 266.314C70.7336 266.208 67.1908 261.859 68.1019 257.189H68.0995Z" fill="#EAA800"/>
<path d="M227.578 229.825C229.209 225.753 233.611 216.579 233.611 210.099C233.611 204.952 230.165 199.998 225.185 199.998C218.896 199.998 212.409 206.958 206.254 227.409C207.267 222.759 208.235 217.956 208.235 215.529C208.235 207.714 206.321 199.996 200.959 199.996C195.596 199.996 188.652 207.497 182.197 229.798C183.096 224.733 183.721 220.582 183.721 217.911C183.721 205.046 180.849 200.06 177.212 199.996C170.628 199.877 166.499 210.43 164.399 220.96C162.452 230.715 158.505 233.062 157.164 233.062C155.056 233.062 153.43 232.108 153.43 228.869C153.43 223.391 155.384 215.364 157.924 207.354C158.894 204.295 156.722 201.142 153.505 200.957C149.13 200.705 145.513 204.32 145.801 208.673C146.796 223.789 145.108 232.301 134.373 232.301C131.406 232.301 129.107 231.824 129.107 229.156C129.107 225.63 134.087 215.146 134.087 209.142C134.087 203.902 130.597 200.529 127.29 199.993C117.707 198.447 114.524 212.545 123.365 214.677C128.32 215.873 128.993 218.101 128.993 219.626C128.802 224.105 114.268 232.491 114.268 241.638C114.268 245.927 118.002 250.5 125.949 250.5C132.26 250.5 140.547 239.041 151.34 220.286C148.271 226.981 143.951 236.679 143.951 241.828C143.951 246.977 147.206 250.5 150.272 250.5C161.831 250.5 163.093 233.284 164.269 228.679C165.446 224.073 166.325 215.297 175.735 215.445C180.059 215.515 182.095 216.671 181.206 219.863C179.975 224.286 172.773 230.347 167.147 238.562C163.979 243.187 167.296 249.453 172.919 249.453C176.45 249.453 179.533 247.074 180.407 243.669C185.824 222.529 191.981 217.434 198.95 217.434C202.399 217.434 204.025 218.672 204.025 220.103C204.025 223.48 196.309 229.052 190.591 237.863C187.346 242.861 190.953 249.453 196.932 249.453C200.152 249.453 202.95 247.264 203.722 244.153C209.07 222.606 215.088 217.434 221.932 217.434C225.475 217.434 227.104 218.672 227.104 220.103C227.104 225.249 213.151 232.59 212.93 241.257C212.791 246.747 217.049 250.5 222.315 250.5C228.032 250.5 230.701 243.432 227.633 239.681C226.391 238.164 224.822 236.704 227.581 229.823L227.578 229.825Z" fill="#EAA800"/>
<path d="M325.486 255.736C326.285 251.634 330.137 248.838 334.305 249.352C336.019 249.562 337.744 249.687 339.263 249.687C343.048 249.687 348.08 248.576 350.592 246.847C351.199 246.429 351.049 245.497 350.346 245.276L338.958 241.7C335.925 240.749 334.534 237.265 336.08 234.501C339.627 228.168 347.957 222.74 347.849 219.592C347.711 215.561 343.793 214.641 340.401 213.748C328.2 210.536 333.834 197.183 342.486 199.36C347.099 200.522 348.611 205.6 350.449 217.701C351.433 224.169 351.568 233.249 352.19 241.184C352.224 241.622 352.578 241.969 353.02 241.999C353.409 242.026 353.773 241.798 353.913 241.436C357.769 231.35 358.396 218.232 357.826 207.828C357.58 203.354 361.264 199.651 365.765 199.839C365.826 199.842 365.888 199.844 365.949 199.846C370.617 200.05 373.594 204.888 371.652 209.117C367.2 218.812 362.54 229.149 359.554 235.815C350.737 255.345 343.058 264.78 333.767 264.78C333.455 264.78 333.14 264.777 332.826 264.77C328.094 264.665 324.587 260.359 325.489 255.736H325.486Z" fill="white"/>
<path d="M483.377 228.645C484.992 224.614 489.35 215.531 489.35 209.115C489.35 204.02 485.938 199.115 481.008 199.115C474.782 199.115 468.359 206.006 462.266 226.253C463.268 221.649 464.227 216.894 464.227 214.492C464.227 206.754 462.332 199.113 457.023 199.113C451.713 199.113 444.839 206.539 438.448 228.618C439.338 223.604 439.957 219.494 439.957 216.85C439.957 204.113 437.113 199.176 433.512 199.113C426.994 198.995 422.906 209.443 420.827 219.868C418.9 229.526 414.991 231.85 413.664 231.85C411.577 231.85 409.967 230.905 409.967 227.698C409.967 222.275 411.902 214.328 414.416 206.397C415.377 203.369 413.227 200.248 410.041 200.064C405.71 199.815 402.129 203.393 402.414 207.704C403.4 222.669 401.728 231.096 391.1 231.096C388.163 231.096 385.887 230.624 385.887 227.982C385.887 224.492 390.817 214.113 390.817 208.168C390.817 202.98 387.361 199.641 384.087 199.11C374.6 197.579 371.448 211.537 380.201 213.648C385.107 214.832 385.774 217.038 385.774 218.547C385.584 222.982 371.195 231.285 371.195 240.34C371.195 244.587 374.892 249.115 382.76 249.115C389.008 249.115 397.213 237.769 407.898 219.201C404.86 225.83 400.583 235.431 400.583 240.529C400.583 245.626 403.805 249.115 406.841 249.115C418.285 249.115 419.534 232.07 420.699 227.51C421.864 222.95 422.734 214.262 432.05 214.408C436.331 214.477 438.347 215.622 437.467 218.782C436.248 223.161 429.117 229.161 423.548 237.295C420.411 241.874 423.695 248.077 429.262 248.077C432.758 248.077 435.81 245.722 436.676 242.351C442.039 221.422 448.135 216.378 455.034 216.378C458.448 216.378 460.058 217.603 460.058 219.019C460.058 222.363 452.419 227.879 446.758 236.602C443.546 241.551 447.117 248.077 453.036 248.077C456.224 248.077 458.994 245.91 459.758 242.83C465.053 221.497 471.011 216.378 477.788 216.378C481.295 216.378 482.908 217.603 482.908 219.019C482.908 224.115 469.094 231.382 468.875 239.963C468.737 245.399 472.953 249.115 478.166 249.115C483.827 249.115 486.469 242.116 483.431 238.403C482.202 236.901 480.649 235.455 483.379 228.643L483.377 228.645Z" fill="white"/>
</svg>
